# xmcd
#
# Track frame offsets:
#	150
#	22854
#	38441
#	61145
#	98595
#	118956
#	136278
#	156198
#	176733
#	196886
#	216736
#	233462
#
# Disc length: 3399 seconds
#
# Revision: 0
# Processed by: cddbd v1.5.2PL0 Copyright (c) Steve Scherf et al.
# Submitted via: EasyCDDAExtractor 16.0.9.1
#
DISCID=9a0d450c
DTITLE=Thanh Thúy - AsiaCD395: Tiếng Ca U Hoài
DYEAR=2018
DGENRE=Country
TTITLE0=Nửa Đêm Ngoài Phố (Trúc Phương)
TTITLE1=Phố Buồn (Phạm Duy)
TTITLE2=Một Chuyến Bay Đêm (Song Ngọc - Hoài Linh)
TTITLE3=Liên Khúc: Mưa Nửa Đêm, Tàu Đêm Năm Cũ, Nửa Đêm Ngoài Phố (Trúc Phương
TTITLE3=)
TTITLE4=Tiếng Ca U Hoài (Lê Dinh - Anh Bằng)
TTITLE5=Sài Gòn Niềm Nhớ Không Tên (Nguyễn Đình Toàn)
TTITLE6=Liên Khúc: Đêm Tâm Sự, Hai Lối Mộng (Trúc Phương)
TTITLE7=Quán Nửa Khuya (Tuấn Khanh - Hoài Linh)
TTITLE8=Đêm Giã Từ (Y Vân - Thể Vân)
TTITLE9=Xin Cám Ơn Đời (Trúc Phương)
TTITLE10=Nhớ Tên Sài Gòn (Anh Bằng)
TTITLE11=Bốn Ngã Đường Quê Hương (Anh Bằng - Vũ Chương)
EXTD=
EXTT0=
EXTT1=
EXTT2=
EXTT3=
EXTT4=
EXTT5=
EXTT6=
EXTT7=
EXTT8=
EXTT9=
EXTT10=
EXTT11=
PLAYORDER=
